<svg width="22" height="22" viewBox="0 0 22 22" fill="none" xmlns="http://www.w3.org/2000/svg">
<g clip-path="url(#clip0_98_13389)">
<path d="M11 21.2143C17.5371 21.2143 21.2143 17.5371 21.2143 11C21.2143 4.46285 17.5371 0.785706 11 0.785706C4.46285 0.785706 0.785706 4.46285 0.785706 11C0.785706 17.5371 4.46285 21.2143 11 21.2143Z" fill="#034EA2" fill-opacity="0.3"/>
<path d="M16.8209 18.9113C16.4966 17.6896 15.7948 16.5977 14.8115 15.7939C13.7358 14.9147 12.3892 14.4344 10.9999 14.4344C9.61064 14.4344 8.26406 14.9147 7.18839 15.7939C6.20502 16.5977 5.50332 17.6896 5.17889 18.9113" stroke="#034EA2" stroke-linecap="round" stroke-linejoin="round"/>
<path d="M11 21.2143C17.5371 21.2143 21.2143 17.5371 21.2143 11C21.2143 4.46285 17.5371 0.785706 11 0.785706C4.46285 0.785706 0.785706 4.46285 0.785706 11C0.785706 17.5371 4.46285 21.2143 11 21.2143Z" stroke="#034EA2" stroke-linecap="round" stroke-linejoin="round"/>
<path d="M10.9988 11.9113C13.1988 11.9113 14.4363 10.6738 14.4363 8.47385C14.4363 6.27385 13.1988 5.03635 10.9988 5.03635C8.79884 5.03635 7.56134 6.27385 7.56134 8.47385C7.56134 10.6738 8.79884 11.9113 10.9988 11.9113Z" stroke="#034EA2" stroke-linecap="round" stroke-linejoin="round"/>
</g>
<defs>
<clipPath id="clip0_98_13389">
<rect width="22" height="22" fill="white"/>
</clipPath>
</defs>
</svg>
