<svg width="18" height="18" viewBox="0 0 18 18" fill="none" xmlns="http://www.w3.org/2000/svg">
<path opacity="0.3" d="M16.5 9C16.5 13.1421 13.1421 16.5 9 16.5C4.85786 16.5 1.5 13.1421 1.5 9C1.5 4.85786 4.85786 1.5 9 1.5C13.1421 1.5 16.5 4.85786 16.5 9Z" fill="white"/>
<path d="M9.5625 6.75C9.5625 6.43934 9.31066 6.1875 9 6.1875C8.68934 6.1875 8.4375 6.43934 8.4375 6.75L8.4375 8.43752H6.75C6.43934 8.43752 6.1875 8.68936 6.1875 9.00002C6.1875 9.31068 6.43934 9.56252 6.75 9.56252H8.4375V11.25C8.4375 11.5607 8.68934 11.8125 9 11.8125C9.31066 11.8125 9.5625 11.5607 9.5625 11.25L9.5625 9.56252H11.25C11.5607 9.56252 11.8125 9.31068 11.8125 9.00002C11.8125 8.68936 11.5607 8.43752 11.25 8.43752H9.5625V6.75Z" fill="white"/>
</svg>
