<svg xmlns="http://www.w3.org/2000/svg" width="16" height="17" viewBox="0 0 16 17" fill="none">
    <path opacity="0.3" d="M7.99995 4.13672C6.10352 4.13672 4.12095 4.13672 2.45852 4.43372C2.06952 4.50328 1.71007 4.68721 1.4261 4.96202C1.14212 5.23684 0.94651 5.59006 0.864238 5.97658C0.594238 7.22243 0.594238 8.38472 0.594238 10.1551C0.594238 11.923 0.594238 13.0866 0.864238 14.3337C0.947124 14.7197 1.14299 15.0723 1.4269 15.3466C1.71081 15.6209 2.06993 15.8045 2.45852 15.874C4.12224 16.171 6.10481 16.171 7.99995 16.171C9.89638 16.171 11.879 16.171 13.5414 15.8753C13.9303 15.8056 14.2897 15.6216 14.5736 15.3468C14.8576 15.072 15.0532 14.7189 15.1357 14.3324C15.4057 13.0853 15.4057 11.923 15.4057 10.1539C15.4057 8.38472 15.4057 7.22243 15.1357 5.97529C15.053 5.58908 14.8572 5.23623 14.5733 4.96169C14.2894 4.68715 13.9301 4.50335 13.5414 4.43372C11.879 4.138 9.89638 4.13672 7.99995 4.13672Z" fill="#FFA600"/>
    <path d="M7.99995 4.13672C6.10352 4.13672 4.12095 4.13672 2.45852 4.43372C2.06952 4.50328 1.71007 4.68721 1.4261 4.96202C1.14212 5.23684 0.94651 5.59006 0.864238 5.97658C0.594238 7.22243 0.594238 8.38472 0.594238 10.1551C0.594238 11.923 0.594238 13.0866 0.864238 14.3337C0.947124 14.7197 1.14299 15.0723 1.4269 15.3466C1.71081 15.6209 2.06993 15.8045 2.45852 15.874C4.12224 16.171 6.10481 16.171 7.99995 16.171C9.89638 16.171 11.879 16.171 13.5414 15.8753C13.9303 15.8056 14.2897 15.6216 14.5736 15.3468C14.8576 15.072 15.0532 14.7189 15.1357 14.3324C15.4057 13.0853 15.4057 11.923 15.4057 10.1539C15.4057 8.38472 15.4057 7.22243 15.1357 5.97529C15.053 5.58908 14.8572 5.23623 14.5733 4.96169C14.2894 4.68715 13.9301 4.50335 13.5414 4.43372C11.879 4.138 9.89638 4.13672 7.99995 4.13672Z" stroke="#FFA600" stroke-linecap="round" stroke-linejoin="round"/>
    <path d="M4.91418 4.13647V3.31362C4.91418 2.63163 5.1851 1.97758 5.66734 1.49534C6.14957 1.01311 6.80363 0.742188 7.48561 0.742188H8.51418C9.19617 0.742188 9.85022 1.01311 10.3325 1.49534C10.8147 1.97758 11.0856 2.63163 11.0856 3.31362V4.13647" stroke="#FFA600" stroke-linecap="round" stroke-linejoin="round"/>
    <path d="M0.603271 8.45605L7.18999 10.6546C7.71864 10.8312 8.29033 10.8312 8.81899 10.6546L15.4057 8.45605" stroke="#FFA600" stroke-linecap="round" stroke-linejoin="round"/>
</svg>