<svg width="18" height="18" viewBox="0 0 18 18" fill="none" xmlns="http://www.w3.org/2000/svg">
<g clip-path="url(#clip0_31_3403)">
<path d="M16.716 16.057H10.252V2.83301H16.716C16.8751 2.83301 17.0278 2.89622 17.1403 3.00874C17.2528 3.12127 17.316 3.27388 17.316 3.43301V15.457C17.316 15.6161 17.2528 15.7688 17.1403 15.8813C17.0278 15.9938 16.8751 16.057 16.716 16.057ZM11.252 15.057H16.316V3.83301H11.252V15.057Z" fill="white"/>
<path d="M13.028 3.84277H13.528V16.0668H13.028V3.84277Z" fill="white"/>
<path d="M10.752 9.19487H16.816V9.69487H10.752V9.19487ZM11.257 7.15787H17.321V7.65787H11.257V7.15787ZM11.257 5.11987H17.321V5.61987H11.257V5.11987ZM11.257 11.2329H17.321V11.7329H11.257V11.2329ZM11.257 13.2699H17.321V13.7699H11.257V13.2699Z" fill="white"/>
<path d="M11.252 17.7139L0.679016 15.2719V2.72689L11.252 0.285889V17.7139ZM1.67902 14.4769L10.252 16.4559V1.54289L1.67902 3.52289V14.4769Z" fill="white"/>
<path d="M8.32803 6.27979L6.74503 9.12678L8.30903 11.9068H7.06003L6.22503 10.1648C6.15969 10.031 6.09767 9.89563 6.03903 9.75878H6.02103C5.95816 9.89596 5.89147 10.0313 5.82103 10.1648L4.97903 11.9068H3.73303L5.34803 9.14779L3.81603 6.27979H5.06903L5.89103 8.10979C5.95237 8.24312 6.0127 8.38212 6.07203 8.52679H6.08603L7.14803 6.27979H8.32803Z" fill="white"/>
</g>
<defs>
<clipPath id="clip0_31_3403">
<rect width="16.642" height="17.428" fill="white" transform="translate(0.679016 0.285889)"/>
</clipPath>
</defs>
</svg>
