<svg width="18" height="19" viewBox="0 0 18 19" fill="none" xmlns="http://www.w3.org/2000/svg">
<path d="M5.20521 2C5.51711 2 5.76995 2.24316 5.76995 2.5431V3.63865C6.27088 3.62931 6.83237 3.62931 7.46415 3.62931H10.4761C11.1078 3.62931 11.6693 3.62931 12.1703 3.63865V2.5431C12.1703 2.24316 12.4231 2 12.735 2C13.0469 2 13.2997 2.24316 13.2997 2.5431V3.6867C14.3835 3.77016 15.095 3.975 15.6177 4.47769C16.1404 4.98039 16.3534 5.66462 16.4402 6.7069L16.5 7.25H2.19342H1.5V6.7069C1.58679 5.66462 1.79977 4.98039 2.32249 4.47769C2.84521 3.975 3.55669 3.77016 4.64048 3.6867V2.5431C4.64048 2.24316 4.89332 2 5.20521 2Z" fill="#034EA2"/>
<path opacity="0.5" d="M16.5 11V9.5C16.5 8.87072 16.4976 7.74889 16.4879 7.24994H1.50724C1.49756 7.74889 1.50001 8.87072 1.50001 9.5V11C1.50001 13.8284 1.50001 15.2426 2.37869 16.1213C3.25737 17 4.67158 17 7.50001 17H10.5C13.3284 17 14.7426 17 15.6213 16.1213C16.5 15.2426 16.5 13.8284 16.5 11Z" fill="#034EA2"/>
<path d="M13.5 13.25C13.5 13.6642 13.1642 14 12.75 14C12.3358 14 12 13.6642 12 13.25C12 12.8358 12.3358 12.5 12.75 12.5C13.1642 12.5 13.5 12.8358 13.5 13.25Z" fill="#034EA2"/>
<path d="M13.5 10.25C13.5 10.6642 13.1642 11 12.75 11C12.3358 11 12 10.6642 12 10.25C12 9.83579 12.3358 9.5 12.75 9.5C13.1642 9.5 13.5 9.83579 13.5 10.25Z" fill="#034EA2"/>
<path d="M9.75 13.25C9.75 13.6642 9.41421 14 9 14C8.58579 14 8.25 13.6642 8.25 13.25C8.25 12.8358 8.58579 12.5 9 12.5C9.41421 12.5 9.75 12.8358 9.75 13.25Z" fill="#034EA2"/>
<path d="M9.75 10.25C9.75 10.6642 9.41421 11 9 11C8.58579 11 8.25 10.6642 8.25 10.25C8.25 9.83579 8.58579 9.5 9 9.5C9.41421 9.5 9.75 9.83579 9.75 10.25Z" fill="#034EA2"/>
<path d="M6 13.25C6 13.6642 5.66421 14 5.25 14C4.83579 14 4.5 13.6642 4.5 13.25C4.5 12.8358 4.83579 12.5 5.25 12.5C5.66421 12.5 6 12.8358 6 13.25Z" fill="#034EA2"/>
<path d="M6 10.25C6 10.6642 5.66421 11 5.25 11C4.83579 11 4.5 10.6642 4.5 10.25C4.5 9.83579 4.83579 9.5 5.25 9.5C5.66421 9.5 6 9.83579 6 10.25Z" fill="#034EA2"/>
</svg>
