<svg width="30" height="30" viewBox="0 0 30 30" fill="none" xmlns="http://www.w3.org/2000/svg">
<path d="M25 26.25H11.25C7.12521 26.25 5.06282 26.25 3.78141 24.9686C2.5 23.6872 2.5 21.6248 2.5 17.5V3.75" stroke="#034EA2" stroke-width="1.5" stroke-linecap="round"/>
<path d="M20.1983 8.75C20.1983 8.33579 20.5341 8 20.9483 8C21.3625 8 21.6983 8.33579 21.6983 8.75L20.1983 8.75ZM7.5 22C7.08579 22 6.75 21.6642 6.75 21.25C6.75 20.8358 7.08579 20.5 7.5 20.5L7.5 22ZM18.6944 10.5122C18.4115 10.8148 17.9369 10.8307 17.6343 10.5478C17.3318 10.2649 17.3158 9.79033 17.5987 9.48777L18.6944 10.5122ZM19.3634 8.69859L18.8155 8.18636L18.8155 8.18636L19.3634 8.69859ZM22.5332 8.69859L23.081 8.18636L22.5332 8.69859ZM24.2978 9.48777C24.5807 9.79033 24.5648 10.2649 24.2622 10.5478C23.9597 10.8307 23.4851 10.8148 23.2022 10.5122L24.2978 9.48777ZM20.9483 7.5L20.9483 6.75L20.9483 7.5ZM21.6983 8.75C21.6983 13.0891 20.1134 16.4301 17.4979 18.6756C14.898 20.9078 11.3485 22 7.5 22L7.5 20.5C11.0788 20.5 14.2534 19.4843 16.5208 17.5376C18.7727 15.6042 20.1983 12.6952 20.1983 8.75L21.6983 8.75ZM17.5987 9.48777L18.8155 8.18636L19.9112 9.21082L18.6944 10.5122L17.5987 9.48777ZM23.081 8.18636L24.2978 9.48777L23.2022 10.5122L21.9853 9.21082L23.081 8.18636ZM18.8155 8.18636C19.1743 7.80264 19.4944 7.45793 19.7878 7.21856C20.096 6.96702 20.4703 6.75 20.9483 6.75L20.9483 8.25C20.9467 8.25 20.94 8.24889 20.9154 8.25987C20.884 8.27386 20.8275 8.30618 20.7361 8.38074C20.5398 8.5409 20.2996 8.79548 19.9112 9.21082L18.8155 8.18636ZM21.9853 9.21082C21.597 8.79548 21.3567 8.5409 21.1605 8.38074C21.0691 8.30618 21.0126 8.27386 20.9812 8.25987C20.9566 8.24889 20.9498 8.25 20.9483 8.25L20.9483 6.75C21.4263 6.75 21.8005 6.96702 22.1088 7.21856C22.4021 7.45793 22.7222 7.80265 23.081 8.18636L21.9853 9.21082Z" fill="#034EA2"/>
</svg>
