<svg width="14" height="14" viewBox="0 0 14 14" fill="none" xmlns="http://www.w3.org/2000/svg">
<path d="M12.8334 6.99996C12.8334 10.2216 10.2217 12.8333 7.00002 12.8333C3.77836 12.8333 1.16669 10.2216 1.16669 6.99996C1.16669 3.7783 3.77836 1.16663 7.00002 1.16663C10.2217 1.16663 12.8334 3.7783 12.8334 6.99996Z" fill="#034EA2"/>
<path fill-rule="evenodd" clip-rule="evenodd" d="M7.00002 4.22913C7.24165 4.22913 7.43752 4.425 7.43752 4.66663V6.81874L8.76771 8.14893C8.93857 8.31979 8.93857 8.5968 8.76771 8.76765C8.59686 8.93851 8.31985 8.93851 8.14899 8.76765L6.69066 7.30932C6.60861 7.22727 6.56252 7.11599 6.56252 6.99996V4.66663C6.56252 4.425 6.7584 4.22913 7.00002 4.22913Z" fill="white"/>
</svg>
