<svg width="23" height="22" viewBox="0 0 23 22" fill="none" xmlns="http://www.w3.org/2000/svg">
<path opacity="0.3" d="M8.71859 3.53572L9.3943 1.79144C9.50826 1.49611 9.70875 1.24208 9.96952 1.06263C10.2303 0.883171 10.5392 0.786656 10.8557 0.785721H12.1443C12.4608 0.786656 12.7697 0.883171 13.0305 1.06263C13.2913 1.24208 13.4918 1.49611 13.6057 1.79144L14.2814 3.53572L16.5757 4.85572L18.43 4.57286C18.7388 4.53095 19.053 4.58178 19.3328 4.71889C19.6126 4.85599 19.8454 5.07318 20.0014 5.34286L20.63 6.44286C20.7911 6.71684 20.8653 7.03322 20.8428 7.35024C20.8204 7.66726 20.7024 7.97003 20.5043 8.21858L19.3572 9.68001V12.32L20.5357 13.7814C20.7338 14.03 20.8518 14.3328 20.8743 14.6498C20.8967 14.9668 20.8225 15.2832 20.6614 15.5571L20.0329 16.6571C19.8768 16.9268 19.6441 17.144 19.3643 17.2811C19.0844 17.4182 18.7702 17.4691 18.4614 17.4271L16.6072 17.1443L14.3129 18.4643L13.6372 20.2086C13.5232 20.5039 13.3227 20.7579 13.0619 20.9374C12.8012 21.1168 12.4923 21.2134 12.1757 21.2143H10.8557C10.5392 21.2134 10.2303 21.1168 9.96952 20.9374C9.70875 20.7579 9.50826 20.5039 9.3943 20.2086L8.71859 18.4643L6.4243 17.1443L4.57001 17.4271C4.26125 17.4691 3.94701 17.4182 3.6672 17.2811C3.38739 17.144 3.15466 16.9268 2.99858 16.6571L2.37001 15.5571C2.20894 15.2832 2.13473 14.9668 2.15718 14.6498C2.17962 14.3328 2.29767 14.03 2.49573 13.7814L3.64287 12.32V9.68001L2.4643 8.21858C2.26624 7.97003 2.14819 7.66726 2.12575 7.35024C2.10331 7.03322 2.17752 6.71684 2.33858 6.44286L2.96716 5.34286C3.12324 5.07318 3.35597 4.85599 3.63577 4.71889C3.91558 4.58178 4.22983 4.53095 4.53858 4.57286L6.39287 4.85572L8.71859 3.53572ZM8.35716 11C8.35716 11.8335 8.68828 12.6329 9.27768 13.2223C9.86708 13.8117 10.6665 14.1429 11.5 14.1429C12.3336 14.1429 13.1329 13.8117 13.7223 13.2223C14.3117 12.6329 14.6429 11.8335 14.6429 11C14.6429 10.1665 14.3117 9.36707 13.7223 8.77767C13.1329 8.18827 12.3336 7.85715 11.5 7.85715C10.6665 7.85715 9.86708 8.18827 9.27768 8.77767C8.68828 9.36707 8.35716 10.1665 8.35716 11Z" fill="#034EA2"/>
<path d="M8.71858 3.53572L9.3943 1.79144C9.50826 1.49611 9.70875 1.24208 9.96952 1.06263C10.2303 0.883171 10.5392 0.786656 10.8557 0.785721H12.1443C12.4608 0.786656 12.7697 0.883171 13.0305 1.06263C13.2913 1.24208 13.4918 1.49611 13.6057 1.79144L14.2814 3.53572L16.5757 4.85572L18.43 4.57286C18.7388 4.53095 19.053 4.58178 19.3328 4.71889C19.6126 4.85599 19.8454 5.07318 20.0014 5.34286L20.63 6.44286C20.7911 6.71684 20.8653 7.03322 20.8428 7.35024C20.8204 7.66726 20.7024 7.97003 20.5043 8.21858L19.3572 9.68001V12.32L20.5357 13.7814C20.7338 14.03 20.8518 14.3328 20.8743 14.6498C20.8967 14.9668 20.8225 15.2832 20.6614 15.5571L20.0329 16.6571C19.8768 16.9268 19.6441 17.144 19.3643 17.2811C19.0844 17.4182 18.7702 17.4691 18.4614 17.4271L16.6072 17.1443L14.3129 18.4643L13.6372 20.2086C13.5232 20.5039 13.3227 20.7579 13.0619 20.9374C12.8012 21.1168 12.4923 21.2134 12.1757 21.2143H10.8557C10.5392 21.2134 10.2303 21.1168 9.96952 20.9374C9.70875 20.7579 9.50826 20.5039 9.3943 20.2086L8.71858 18.4643L6.4243 17.1443L4.57001 17.4271C4.26125 17.4691 3.94701 17.4182 3.6672 17.2811C3.38739 17.144 3.15466 16.9268 2.99858 16.6571L2.37001 15.5571C2.20894 15.2832 2.13473 14.9668 2.15718 14.6498C2.17962 14.3328 2.29767 14.03 2.49573 13.7814L3.64287 12.32V9.68001L2.4643 8.21858C2.26624 7.97003 2.14819 7.66726 2.12575 7.35024C2.10331 7.03322 2.17752 6.71684 2.33858 6.44286L2.96716 5.34286C3.12324 5.07318 3.35597 4.85599 3.63577 4.71889C3.91558 4.58178 4.22983 4.53095 4.53858 4.57286L6.39287 4.85572L8.71858 3.53572ZM8.35716 11C8.35716 11.8335 8.68828 12.6329 9.27768 13.2223C9.86708 13.8117 10.6665 14.1429 11.5 14.1429C12.3336 14.1429 13.1329 13.8117 13.7223 13.2223C14.3117 12.6329 14.6429 11.8335 14.6429 11C14.6429 10.1665 14.3117 9.36707 13.7223 8.77767C13.1329 8.18827 12.3336 7.85715 11.5 7.85715C10.6665 7.85715 9.86708 8.18827 9.27768 8.77767C8.68828 9.36707 8.35716 10.1665 8.35716 11Z" stroke="#034EA2" stroke-linecap="round" stroke-linejoin="round"/>
</svg>
