<svg width="100" height="100" viewBox="0 0 100 100" fill="none" xmlns="http://www.w3.org/2000/svg">
<path opacity="0.3" d="M49.9999 12.5C40.3718 12.5 34.2919 23.2799 22.132 44.8396L20.6168 47.5261C10.5121 65.4421 5.45968 74.4001 10.026 80.95C14.5923 87.5 25.8898 87.5 48.4847 87.5H51.5152C74.1101 87.5 85.4075 87.5 89.9739 80.95C94.5402 74.4001 89.4878 65.4421 79.383 47.5261L77.8678 44.8395C65.7079 23.2798 59.628 12.5 49.9999 12.5Z" fill="#FF5630"/>
<path d="M49.9999 30.2085C51.7258 30.2085 53.1249 31.6076 53.1249 33.3335V54.1668C53.1249 55.8927 51.7258 57.2918 49.9999 57.2918C48.274 57.2918 46.8749 55.8927 46.8749 54.1668V33.3335C46.8749 31.6076 48.274 30.2085 49.9999 30.2085Z" fill="#FF5630"/>
<path d="M49.9999 70.8335C52.3011 70.8335 54.1666 68.968 54.1666 66.6668C54.1666 64.3656 52.3011 62.5002 49.9999 62.5002C47.6987 62.5002 45.8333 64.3656 45.8333 66.6668C45.8333 68.968 47.6987 70.8335 49.9999 70.8335Z" fill="#FF5630"/>
</svg>
