<svg width="18" height="18" viewBox="0 0 18 18" fill="none" xmlns="http://www.w3.org/2000/svg">
<g clip-path="url(#clip0_272_13779)">
<path opacity="0.3" d="M3.07469 14.6309L2.57141 7.58496H15.4286L14.9253 14.6309C14.8428 15.7852 14.0006 16.7541 12.8536 16.9074C10.2812 17.2512 7.71876 17.2512 5.14636 16.9074C3.99931 16.7541 3.15714 15.7852 3.07469 14.6309Z" fill="#FF5630"/>
<path d="M2.57141 7.58496L3.07469 14.6309C3.15714 15.7852 3.99931 16.7541 5.14636 16.9074C7.71876 17.2512 10.2812 17.2512 12.8536 16.9074C14.0006 16.7541 14.8428 15.7852 14.9253 14.6309L15.4286 7.58496" stroke="#FF5630" stroke-linecap="round" stroke-linejoin="round"/>
<path d="M0.964233 4.46802H17.0357" stroke="#FF5630" stroke-linecap="round" stroke-linejoin="round"/>
<path d="M5.78564 4.37067L6.41229 2.64741C6.80797 1.5593 7.84209 0.834961 8.99993 0.834961C10.1578 0.834961 11.1919 1.5593 11.5876 2.64741L12.2142 4.37067" stroke="#FF5630" stroke-linecap="round" stroke-linejoin="round"/>
<path d="M9 8.65576V13.8733" stroke="#FF5630" stroke-linecap="round" stroke-linejoin="round"/>
<path d="M11.4699 11.0652C10.624 10.0726 10.1011 9.52254 9.14783 8.71717C9.05387 8.63778 8.91667 8.63502 8.81987 8.71092C7.87515 9.45184 7.34179 10.0056 6.47437 11.0652" stroke="#FF5630" stroke-linecap="round" stroke-linejoin="round"/>
</g>
<defs>
<clipPath id="clip0_272_13779">
<rect width="18" height="18" fill="white"/>
</clipPath>
</defs>
</svg>
