<svg width="26" height="26" viewBox="0 0 26 26" fill="none" xmlns="http://www.w3.org/2000/svg">
<g clip-path="url(#clip0_289_14999)">
<path d="M10.0545 18.6457C15.7875 18.6457 19.0115 15.4199 19.0115 9.68686C19.0115 3.95386 15.7875 0.729858 10.0545 0.729858C4.32153 0.729858 1.09753 3.95572 1.09753 9.68686C1.09753 15.4199 4.32153 18.6457 10.0545 18.6457Z" fill="#034EA2" fill-opacity="0.3"/>
<path d="M10.0546 6.01343V5.02357" stroke="#034EA2" stroke-width="1.5" stroke-linecap="round" stroke-linejoin="round"/>
<path d="M10.0546 14.9166V13.9286" stroke="#034EA2" stroke-width="1.5" stroke-linecap="round" stroke-linejoin="round"/>
<path d="M12.6435 7.89099C12.6435 6.87514 11.8078 6.01157 10.0546 6.01157C8.29962 6.01157 7.46576 6.82499 7.46576 7.89099C7.46576 8.72114 8.30148 9.51971 10.0546 9.77042C11.8096 10.0211 13.039 10.5987 13.039 11.8504C13.039 12.9796 11.8096 13.9249 10.0546 13.9249C8.29962 13.9249 7.07019 13.1189 7.07019 12.0454" stroke="#034EA2" stroke-width="1.5" stroke-linecap="round" stroke-linejoin="round"/>
<path d="M18.7386 12.6174C18.9131 11.8059 19.0023 10.9219 19.0023 9.96914C19.0023 4.23614 15.7783 1.01028 10.0453 1.01028C4.31228 1.01028 1.08643 4.23614 1.08643 9.96914C1.08643 14.3074 2.93428 17.2083 6.318 18.3634" stroke="#034EA2" stroke-width="1.5" stroke-linecap="round" stroke-linejoin="round"/>
<path d="M7.47876 24.9897C7.47876 24.9897 11.8598 19.201 13.8023 19.3589C15.3623 19.4851 15.5016 22.802 16.9483 22.204C17.914 21.8047 23.4186 16.8109 24.7725 15.574" stroke="#034EA2" stroke-width="1.5" stroke-linecap="round" stroke-linejoin="round"/>
<path d="M20.1426 15.1599C21.5837 14.7996 23.4557 14.9444 24.8226 15.522C25.1829 16.9613 25.038 18.8333 24.4623 20.202" stroke="#034EA2" stroke-linecap="round" stroke-linejoin="round"/>
</g>
<defs>
<clipPath id="clip0_289_14999">
<rect width="26" height="26" fill="white"/>
</clipPath>
</defs>
</svg>
