<svg width="18" height="18" viewBox="0 0 18 18" fill="none" xmlns="http://www.w3.org/2000/svg">
<g clip-path="url(#clip0_272_13776)">
<path opacity="0.3" d="M1.28884 14.3331C1.42671 15.5674 2.41332 16.5535 3.64697 16.6962C5.04097 16.8575 6.48142 17.0165 7.95522 17.0165C9.42902 17.0165 10.8695 16.8575 12.2635 16.6962C13.4972 16.5535 14.4837 15.5674 14.6216 14.3331C14.7766 12.9458 14.9261 11.5123 14.9261 10.0456C14.9261 8.57897 14.7766 7.14546 14.6216 5.75807C14.4837 4.52386 13.4972 3.53773 12.2635 3.39503C10.8695 3.23378 9.42902 3.07471 7.95522 3.07471C6.48142 3.07471 5.04097 3.23378 3.64697 3.39503C2.41332 3.53773 1.42671 4.52386 1.28884 5.75807C1.13386 7.14546 0.984314 8.57897 0.984314 10.0456C0.984314 11.5123 1.13386 12.9458 1.28884 14.3331Z" fill="#034EA2"/>
<path d="M6.92986 3.09863C5.81219 3.14897 4.71593 3.27134 3.64698 3.39499C2.41332 3.53769 1.42671 4.52382 1.28884 5.75803C1.13386 7.14542 0.984314 8.57893 0.984314 10.0456C0.984314 11.5122 1.13386 12.9457 1.28884 14.3331C1.42671 15.5673 2.41332 16.5534 3.64697 16.6961C5.04097 16.8574 6.48142 17.0165 7.95522 17.0165C9.42902 17.0165 10.8695 16.8574 12.2635 16.6961C13.4972 16.5534 14.4837 15.5674 14.6216 14.3331C14.7331 13.3352 14.8417 12.3133 14.8939 11.2724" stroke="#034EA2" stroke-linecap="round" stroke-linejoin="round"/>
<path d="M12.9965 1.67484L8.25882 7.05062L7.60976 10.1033C7.50532 10.5945 8.01733 11.0593 8.49683 10.9085L11.5347 9.9535L16.4283 4.80433C17.241 3.94912 17.0992 2.51871 16.1154 1.64852C15.1547 0.798718 13.7583 0.810503 12.9965 1.67484Z" fill="white"/>
<path d="M12.9965 1.67484L8.25882 7.05062L7.60976 10.1033C7.50532 10.5945 8.01733 11.0593 8.49683 10.9085L11.5347 9.9535L16.4283 4.80433C17.241 3.94912 17.0992 2.51871 16.1154 1.64852C15.1547 0.798718 13.7583 0.810503 12.9965 1.67484Z" stroke="#034EA2" stroke-linecap="round" stroke-linejoin="round"/>
</g>
<defs>
<clipPath id="clip0_272_13776">
<rect width="18" height="18" fill="white"/>
</clipPath>
</defs>
</svg>
