<svg width="14" height="14" viewBox="0 0 14 14" fill="none" xmlns="http://www.w3.org/2000/svg">
<path fill-rule="evenodd" clip-rule="evenodd" d="M1.85008 3.01679C1.16666 3.70021 1.16666 4.80015 1.16666 7.00004C1.16666 9.19993 1.16666 10.2999 1.85008 10.9833C2.5335 11.6667 3.63344 11.6667 5.83333 11.6667H8.16666C10.3666 11.6667 11.4665 11.6667 12.1499 10.9833C12.8333 10.2999 12.8333 9.19993 12.8333 7.00004C12.8333 4.80015 12.8333 3.70021 12.1499 3.01679C11.4665 2.33337 10.3666 2.33337 8.16666 2.33337H5.83333C3.63344 2.33337 2.5335 2.33337 1.85008 3.01679ZM10.8361 4.38663C10.9908 4.57225 10.9657 4.84812 10.7801 5.0028L9.4988 6.07054C8.98175 6.50142 8.56268 6.85066 8.19281 7.08855C7.80752 7.33635 7.43229 7.49288 7 7.49288C6.5677 7.49288 6.19247 7.33635 5.80718 7.08855C5.43732 6.85066 5.01825 6.50143 4.5012 6.07054L3.21992 5.0028C3.0343 4.84812 3.00922 4.57225 3.1639 4.38663C3.31858 4.20101 3.59446 4.17593 3.78008 4.33061L5.03943 5.38007C5.58366 5.8336 5.96151 6.14745 6.2805 6.35262C6.5893 6.55122 6.79871 6.61788 7 6.61788C7.20129 6.61788 7.4107 6.55122 7.71949 6.35262C8.03849 6.14745 8.41634 5.8336 8.96056 5.38007L10.2199 4.33061C10.4055 4.17593 10.6814 4.20101 10.8361 4.38663Z" fill="#034EA2"/>
</svg>
