<svg width="19" height="18" viewBox="0 0 19 18" fill="none" xmlns="http://www.w3.org/2000/svg">
<g clip-path="url(#clip0_31_3374)">
<path d="M18.5 3.75C18.5 4.99264 17.4926 6 16.25 6C15.0074 6 14 4.99264 14 3.75C14 2.50736 15.0074 1.5 16.25 1.5C17.4926 1.5 18.5 2.50736 18.5 3.75Z" fill="white"/>
<path d="M13.4254 5.59795L12.273 6.55833C11.5033 7.19974 10.9689 7.64362 10.5177 7.93378C10.081 8.21467 9.78485 8.30895 9.50016 8.30895C9.21548 8.30895 8.91932 8.21467 8.48259 7.93378C8.03144 7.64362 7.49706 7.19974 6.72737 6.55833L4.94628 5.07409C4.68375 4.85532 4.29359 4.89079 4.07483 5.15332C3.85606 5.41584 3.89153 5.806 4.15405 6.02477L5.96616 7.53486C6.6974 8.14425 7.29008 8.63816 7.81318 8.9746C8.35809 9.32506 8.88877 9.54645 9.50016 9.54645C10.1116 9.54645 10.6422 9.32506 11.1871 8.9746C11.7102 8.63816 12.3029 8.14424 13.0342 7.53485L14.2838 6.49346C13.9456 6.2506 13.6541 5.94674 13.4254 5.59795Z" fill="white"/>
<path d="M14.3403 4.9404C14.5522 4.9024 14.7779 4.97615 14.9255 5.15332C15.0474 5.2996 15.0904 5.48553 15.0591 5.65934C14.7683 5.47758 14.522 5.23124 14.3403 4.9404Z" fill="white"/>
<path opacity="0.3" d="M13.2182 2.26574C12.617 2.25 11.9327 2.25 11.15 2.25H7.85C4.73873 2.25 3.1831 2.25 2.21655 3.23851C1.25 4.22703 1.25 5.81802 1.25 9C1.25 12.182 1.25 13.773 2.21655 14.7615C3.1831 15.75 4.73873 15.75 7.85 15.75H11.15C14.2613 15.75 15.8169 15.75 16.7835 14.7615C17.75 13.773 17.75 12.182 17.75 9C17.75 8.19947 17.75 7.49965 17.7346 6.88478C17.2866 7.10957 16.7827 7.2358 16.25 7.2358C14.386 7.2358 12.875 5.69041 12.875 3.78409C12.875 3.23928 12.9984 2.72394 13.2182 2.26574Z" fill="white"/>
</g>
<defs>
<clipPath id="clip0_31_3374">
<rect width="18" height="18" fill="white" transform="translate(0.5)"/>
</clipPath>
</defs>
</svg>
