<svg width="14" height="14" viewBox="0 0 14 14" fill="none" xmlns="http://www.w3.org/2000/svg">
    <path id="Vector" fill-rule="evenodd" clip-rule="evenodd" d="M7.00001 1.16663C4.42268 1.16663 2.33334 3.50147 2.33334 6.12496C2.33334 8.7279 3.82278 11.5572 6.14663 12.6434C6.68836 12.8966 7.31166 12.8966 7.85339 12.6434C10.1772 11.5572 11.6667 8.72789 11.6667 6.12496C11.6667 3.50147 9.57734 1.16663 7.00001 1.16663ZM7.00001 6.99996C7.64434 6.99996 8.16668 6.47763 8.16668 5.83329C8.16668 5.18896 7.64434 4.66663 7.00001 4.66663C6.35568 4.66663 5.83334 5.18896 5.83334 5.83329C5.83334 6.47763 6.35568 6.99996 7.00001 6.99996Z" fill="currentColor"/>
</svg>
