<svg width="22" height="22" viewBox="0 0 22 22" fill="none" xmlns="http://www.w3.org/2000/svg">
<path d="M2.96684 16.6666C3.09783 17.7639 3.61552 18.7787 4.42705 19.5289C5.23859 20.2791 6.29086 20.7156 7.39512 20.7601C9.79766 20.8424 12.2023 20.8419 14.6048 20.7586C15.7089 20.7141 16.7609 20.2778 17.5724 19.5279C18.3839 18.7781 18.9018 17.7637 19.0331 16.6666C19.1227 15.8809 19.184 15.0826 19.184 14.2733C19.184 13.4656 19.1227 12.6673 19.0331 11.8816C18.9021 10.7842 18.3844 9.7694 17.5729 9.01921C16.7614 8.26902 15.7091 7.83251 14.6048 7.78799C13.4037 7.74557 12.2019 7.72461 11 7.72514C9.72712 7.72514 8.54541 7.74714 7.39512 7.78799C6.29086 7.83251 5.23859 8.26902 4.42705 9.01921C3.61552 9.7694 3.09783 10.7842 2.96684 11.8816C2.87156 12.6753 2.82119 13.4738 2.81598 14.2733C2.81598 15.0826 2.87726 15.8809 2.96684 16.6666Z" fill="#034EA2" fill-opacity="0.3"/>
<path d="M2.96684 16.6666C3.09783 17.7639 3.61552 18.7787 4.42705 19.5289C5.23859 20.2791 6.29086 20.7156 7.39512 20.7601C9.79759 20.8462 12.2024 20.8462 14.6048 20.7601C15.7091 20.7156 16.7614 20.2791 17.5729 19.5289C18.3844 18.7787 18.9021 17.7639 19.0331 16.6666C19.1227 15.8809 19.184 15.0826 19.184 14.2733C19.184 13.4656 19.1227 12.6673 19.0331 11.8816C18.9021 10.7842 18.3844 9.7694 17.5729 9.01921C16.7614 8.26902 15.7091 7.83251 14.6048 7.788C13.4037 7.74556 12.2019 7.72461 11 7.72514C9.72712 7.72514 8.54541 7.74714 7.39512 7.788C6.29086 7.83251 5.23859 8.26902 4.42705 9.01921C3.61552 9.7694 3.09783 10.7842 2.96684 11.8816C2.87129 12.6753 2.82092 13.4738 2.81598 14.2733C2.81598 15.0826 2.87726 15.8809 2.96684 16.6666Z" stroke="#034EA2" stroke-linecap="round" stroke-linejoin="round"/>
<path d="M15.5839 7.7267V5.76242C15.5839 4.5467 15.1009 3.38078 14.2413 2.52114C13.3816 1.6615 12.2157 1.17856 11 1.17856C9.78428 1.17856 8.61836 1.6615 7.75872 2.52114C6.89908 3.38078 6.41614 4.5467 6.41614 5.76242V7.7267" stroke="#034EA2" stroke-linecap="round" stroke-linejoin="round"/>
<path d="M11 13.3571V14.9285" stroke="#034EA2" stroke-linecap="round" stroke-linejoin="round"/>
</svg>
