<svg width="28" height="28" viewBox="0 0 28 28" fill="none" xmlns="http://www.w3.org/2000/svg">
<path d="M3.26712 24.8184C4.379 24.8184 5.28034 23.917 5.28034 22.8052C5.28034 21.6934 4.379 20.792 3.26712 20.792C2.15526 20.792 1.25391 21.6934 1.25391 22.8052C1.25391 23.917 2.15526 24.8184 3.26712 24.8184Z" fill="white"/>
<path d="M3.26712 24.8184C4.379 24.8184 5.28034 23.917 5.28034 22.8052C5.28034 21.6934 4.379 20.792 3.26712 20.792C2.15526 20.792 1.25391 21.6934 1.25391 22.8052C1.25391 23.917 2.15526 24.8184 3.26712 24.8184Z" stroke="#034EA2" stroke-width="1.5" stroke-linecap="round" stroke-linejoin="round"/>
<path d="M3.26758 20.7922V10.876" stroke="#034EA2" stroke-width="1.5" stroke-linecap="round" stroke-linejoin="round"/>
<path opacity="0.3" d="M7.34641 17.7073C7.53523 19.6299 9.09305 21.1884 11.0147 21.3858C11.9905 21.486 12.9868 21.5628 13.9991 21.5628C15.0115 21.5628 16.0078 21.486 16.9835 21.3858C18.9052 21.1884 20.463 19.6299 20.6518 17.7073C20.747 16.7398 20.8186 15.752 20.8186 14.7484C20.8186 14.3131 20.8052 13.8809 20.782 13.4519C20.6268 10.5584 18.2147 8.1393 15.3217 7.97386C14.8842 7.94884 14.4432 7.93408 13.9991 7.93408C13.5551 7.93408 13.1141 7.94884 12.6766 7.97386C9.78361 8.1393 7.37151 10.5584 7.21621 13.4519C7.19319 13.8809 7.17969 14.3131 7.17969 14.7484C7.17969 15.752 7.25139 16.7398 7.34641 17.7073Z" fill="#034EA2"/>
<path d="M20.789 13.5854C20.8078 13.9705 20.8186 14.3582 20.8186 14.7482C20.8186 15.7212 20.7512 16.6793 20.6606 17.6185C20.4698 19.5929 18.9049 21.1884 16.9828 21.3858C16.0073 21.486 15.0113 21.5626 13.9991 21.5626C12.987 21.5626 11.991 21.486 11.0155 21.3858C9.09339 21.1884 7.52843 19.5929 7.33777 17.6185C7.24709 16.6793 7.17969 15.7212 7.17969 14.7482C7.17969 14.3582 7.19053 13.9705 7.20935 13.5854" stroke="#034EA2" stroke-width="1.5" stroke-linecap="round" stroke-linejoin="round"/>
<path opacity="0.3" d="M2.01648 8.4591C1.00008 9.09692 1.00067 10.0113 2.01252 10.6509C3.4133 11.5364 4.86152 12.456 6.54432 13.2988C8.22712 14.1416 10.0632 14.8669 11.8312 15.5685C13.1084 16.0753 14.934 16.0756 16.2075 15.5665C17.9621 14.8652 19.7792 14.1378 21.4544 13.2988C23.1296 12.4598 24.582 11.5497 25.9822 10.671C26.9986 10.0332 26.998 9.11878 25.9862 8.47916C24.5854 7.59364 23.1372 6.67408 21.4544 5.83128C19.7716 4.98846 17.9356 4.26314 16.1675 3.56158C14.8904 3.05482 13.0647 3.05452 11.7912 3.56356C10.0367 4.2649 8.2195 4.99228 6.54432 5.83128C4.86914 6.67026 3.41682 7.58038 2.01648 8.4591Z" fill="#034EA2"/>
<path d="M2.01648 8.4591C1.00008 9.09692 1.00067 10.0113 2.01252 10.6509C3.4133 11.5364 4.86152 12.456 6.54432 13.2988C8.22712 14.1416 10.0632 14.8669 11.8312 15.5685C13.1084 16.0753 14.934 16.0756 16.2075 15.5665C17.9621 14.8652 19.7792 14.1378 21.4544 13.2988C23.1296 12.4598 24.582 11.5497 25.9822 10.671C26.9986 10.0332 26.998 9.11878 25.9862 8.47916C24.5854 7.59364 23.1372 6.67408 21.4544 5.83128C19.7716 4.98846 17.9356 4.26314 16.1675 3.56158C14.8904 3.05482 13.0647 3.05452 11.7912 3.56356C10.0367 4.2649 8.2195 4.99228 6.54432 5.83128C4.86914 6.67026 3.41682 7.58038 2.01648 8.4591Z" stroke="#034EA2" stroke-width="1.5" stroke-linecap="round" stroke-linejoin="round"/>
</svg>
