<svg width="22" height="22" viewBox="0 0 22 22" fill="none" xmlns="http://www.w3.org/2000/svg">
<path d="M17.3929 8.64286C18.4348 8.64286 19.434 8.22896 20.1708 7.49221C20.9075 6.75546 21.3214 5.75621 21.3214 4.71429C21.3214 3.67237 20.9075 2.67312 20.1708 1.93637C19.434 1.19962 18.4348 0.785721 17.3929 0.785721C16.3509 0.785721 15.3517 1.19962 14.6149 1.93637C13.8782 2.67312 13.4643 3.67237 13.4643 4.71429C13.4643 5.75621 13.8782 6.75546 14.6149 7.49221C15.3517 8.22896 16.3509 8.64286 17.3929 8.64286Z" fill="white"/>
<path opacity="0.3" fill-rule="evenodd" clip-rule="evenodd" d="M16.0414 8.404C16.0854 8.70258 16.109 9.00429 16.109 9.30915V14.9679C16.109 15.5823 16.3526 16.1716 16.7878 16.6069C17.2216 17.0421 17.957 17.2857 18.5714 17.2857H1.28571C1.90013 17.2857 2.63556 17.0421 3.06928 16.6069C3.50456 16.1716 3.74813 15.5823 3.74813 14.9679V9.31072C3.74811 8.17824 4.05924 7.06753 4.64756 6.09986C5.23588 5.13219 6.07876 4.34477 7.08417 3.82358C8.08959 3.30238 9.21888 3.06745 10.3487 3.14444C11.4786 3.22143 12.5656 3.60738 13.491 4.26015C13.3886 5.13718 13.5846 6.02312 14.0473 6.77517C14.51 7.52722 15.2124 8.09998 16.0414 8.404Z" fill="#034EA2"/>
<path d="M17.3929 8.64286C18.4348 8.64286 19.434 8.22896 20.1708 7.49221C20.9075 6.75546 21.3214 5.75621 21.3214 4.71429C21.3214 3.67237 20.9075 2.67312 20.1708 1.93637C19.434 1.19962 18.4348 0.785721 17.3929 0.785721C16.3509 0.785721 15.3517 1.19962 14.6149 1.93637C13.8782 2.67312 13.4643 3.67237 13.4643 4.71429C13.4643 5.75621 13.8782 6.75546 14.6149 7.49221C15.3517 8.22896 16.3509 8.64286 17.3929 8.64286Z" fill="#FF5630"/>
<path d="M16.109 12.5714V14.982C16.109 15.5949 16.3526 16.1857 16.7878 16.6194C17.2216 17.0547 17.957 17.2983 18.5714 17.2983H1.28571C1.90013 17.2983 2.63556 17.0547 3.06928 16.6194C3.28467 16.4046 3.45552 16.1494 3.57201 15.8684C3.68851 15.5874 3.74836 15.2862 3.74813 14.982V9.3233C3.74813 7.68415 4.39928 6.11213 5.55834 4.95307C6.7174 3.79402 8.28941 3.14287 9.92856 3.14287" stroke="#034EA2" stroke-linecap="round" stroke-linejoin="round"/>
<path d="M8.35712 21.2143H11.5" stroke="#034EA2" stroke-linecap="round" stroke-linejoin="round"/>
</svg>
