<svg width="14" height="14" viewBox="0 0 14 14" fill="none" xmlns="http://www.w3.org/2000/svg">
<path fill-rule="evenodd" clip-rule="evenodd" d="M1.89583 12.8334C1.89583 12.5917 2.0917 12.3959 2.33333 12.3959H11.6667C11.9083 12.3959 12.1042 12.5917 12.1042 12.8334C12.1042 13.075 11.9083 13.2709 11.6667 13.2709H2.33333C2.0917 13.2709 1.89583 13.075 1.89583 12.8334Z" fill="currentColor"/>
<path d="M6.72004 8.70851L6.72004 8.70851L10.1714 5.25711C9.70171 5.0616 9.14535 4.74045 8.61917 4.21428C8.09291 3.68802 7.77174 3.13156 7.57625 2.66178L4.12478 6.11325L4.12476 6.11326C3.85544 6.38259 3.72076 6.51726 3.60495 6.66575C3.46832 6.84091 3.35119 7.03044 3.25562 7.23097C3.1746 7.40097 3.11438 7.58165 2.99392 7.94301L2.35874 9.84857C2.29946 10.0264 2.34574 10.2225 2.47829 10.355C2.61084 10.4875 2.80689 10.5338 2.98472 10.4746L4.89028 9.83936C5.25163 9.71891 5.43232 9.65868 5.60232 9.57767C5.80285 9.4821 5.99238 9.36496 6.16754 9.22834C6.31602 9.11253 6.45071 8.97784 6.72004 8.70851Z" fill="currentColor"/>
<path d="M11.1292 4.29939C11.8458 3.58272 11.8458 2.42078 11.1292 1.70412C10.4125 0.98746 9.25056 0.98746 8.5339 1.70412L8.11995 2.11807C8.12562 2.13519 8.1315 2.15255 8.1376 2.17012C8.28933 2.60746 8.5756 3.18076 9.11414 3.7193C9.65268 4.25784 10.226 4.54412 10.6633 4.69585C10.6808 4.70192 10.6981 4.70777 10.7151 4.71342L11.1292 4.29939Z" fill="currentColor"/>
</svg>
