<svg width="19" height="18" viewBox="0 0 19 18" fill="none" xmlns="http://www.w3.org/2000/svg">
<g clip-path="url(#clip0_268_11637)">
<path d="M12.6097 10.9108L12.2682 11.2704C12.2682 11.2704 11.4562 12.1252 9.23997 9.79192C7.02371 7.45863 7.83565 6.60381 7.83565 6.60381L8.05077 6.37733C8.58068 5.81943 8.63064 4.92372 8.16831 4.26983L7.22257 2.93221C6.65034 2.12287 5.5446 2.01596 4.88871 2.70648L3.71151 3.94585C3.3863 4.28824 3.16837 4.73209 3.19479 5.22445C3.2624 6.48409 3.80066 9.19429 6.80415 12.3564C9.98923 15.7097 12.9778 15.8429 14.1998 15.7223C14.5864 15.6842 14.9226 15.4757 15.1935 15.1905L16.2589 14.0688C16.978 13.3117 16.7753 12.0136 15.8551 11.484L14.4222 10.6592C13.8181 10.3115 13.082 10.4136 12.6097 10.9108Z" fill="white"/>
<path d="M10.8872 1.41012C10.9369 1.10345 11.2268 0.895419 11.5335 0.945068C11.5524 0.948701 11.6135 0.960116 11.6455 0.967243C11.7095 0.981496 11.7988 1.00344 11.9101 1.03586C12.1327 1.10069 12.4436 1.20749 12.8168 1.3786C13.5641 1.72116 14.5584 2.32042 15.5903 3.35227C16.6221 4.38412 17.2214 5.37848 17.5639 6.12568C17.735 6.4989 17.8418 6.80985 17.9067 7.03243C17.9391 7.14374 17.961 7.23301 17.9753 7.297C17.9824 7.32901 17.9876 7.3547 17.9913 7.37368L17.9956 7.39708C18.0452 7.70375 17.8391 8.00564 17.5324 8.05528C17.2266 8.10479 16.9385 7.89776 16.8877 7.59254C16.8861 7.58434 16.8818 7.56232 16.8772 7.54156C16.8679 7.50002 16.8519 7.43415 16.8266 7.34704C16.7758 7.17279 16.6876 6.91379 16.5413 6.59453C16.2489 5.9568 15.7232 5.07616 14.7948 4.14776C13.8664 3.21936 12.9857 2.69362 12.348 2.40125C12.0287 2.25488 11.7697 2.16673 11.5955 2.11597C11.5084 2.0906 11.3989 2.06547 11.3573 2.05622C11.0521 2.00535 10.8377 1.71591 10.8872 1.41012Z" fill="white"/>
<path fill-rule="evenodd" clip-rule="evenodd" d="M11.0569 3.99722C11.1423 3.69851 11.4536 3.52555 11.7523 3.61089L11.5978 4.15175C11.7523 3.61089 11.7523 3.61089 11.7523 3.61089L11.7534 3.6112L11.7545 3.61153L11.757 3.61226L11.7629 3.614L11.7777 3.61862C11.789 3.62224 11.8031 3.62695 11.82 3.63292C11.8537 3.64487 11.8982 3.66187 11.9528 3.68528C12.062 3.7321 12.2113 3.80442 12.3947 3.91295C12.7618 4.13021 13.263 4.4911 13.8517 5.07982C14.4404 5.66855 14.8013 6.16969 15.0186 6.53679C15.1271 6.72018 15.1994 6.86947 15.2462 6.97874C15.2696 7.03334 15.2866 7.07786 15.2986 7.11154C15.3046 7.12838 15.3093 7.1425 15.3129 7.15381L15.3175 7.16865L15.3193 7.17447L15.32 7.17697L15.3203 7.17812C15.3203 7.17812 15.3206 7.1792 14.7798 7.33373L15.3206 7.1792C15.406 7.4779 15.233 7.78924 14.9343 7.87458C14.6381 7.9592 14.3295 7.78988 14.2411 7.49584L14.2384 7.48775C14.2344 7.47649 14.2261 7.4543 14.2122 7.4219C14.1844 7.35714 14.1341 7.25122 14.0504 7.10978C13.8832 6.82722 13.5812 6.40028 13.0562 5.87532C12.5312 5.35036 12.1043 5.04833 11.8217 4.8811C11.6803 4.79739 11.5744 4.74706 11.5096 4.71931C11.4772 4.70543 11.455 4.69715 11.4438 4.69315L11.4357 4.69038C11.1416 4.60197 10.9723 4.29339 11.0569 3.99722Z" fill="white"/>
</g>
<defs>
<clipPath id="clip0_268_11637">
<rect width="18" height="18" fill="white" transform="translate(0.942627)"/>
</clipPath>
</defs>
</svg>
