<svg width="14" height="14" viewBox="0 0 14 14" fill="none" xmlns="http://www.w3.org/2000/svg">
<path d="M5.77349 2.82261L6.17913 3.54944C6.54519 4.20536 6.39824 5.06582 5.8217 5.64237C5.82169 5.64238 5.8217 5.64237 5.82169 5.64238C5.82158 5.64249 5.12246 6.34182 6.39032 7.60968C7.65753 8.87688 8.35681 8.17912 8.35762 8.17831C8.35765 8.17828 8.35764 8.1783 8.35766 8.17827C8.93421 7.60175 9.79465 7.45482 10.4506 7.82087L11.1774 8.22651C12.1679 8.77927 12.2848 10.1683 11.4142 11.0389C10.8911 11.562 10.2502 11.969 9.54182 11.9959C8.34924 12.0411 6.32392 11.7393 4.29231 9.70769C2.2607 7.67608 1.95888 5.65077 2.00409 4.45818C2.03095 3.74975 2.438 3.1089 2.96113 2.58577C3.83172 1.71518 5.22073 1.83215 5.77349 2.82261Z" fill="currentColor"/>
</svg>
