<svg width="22" height="22" viewBox="0 0 22 22" fill="none" xmlns="http://www.w3.org/2000/svg">
<path d="M15.6943 2.63871C14.8889 1.83325 13.5925 1.83325 10.9998 1.83325C8.40706 1.83325 7.1107 1.83325 6.30524 2.63871C5.8539 3.09005 5.65547 3.69552 5.56823 4.59686C6.08087 4.58322 6.64751 4.58323 7.26864 4.58325H14.7314C15.3523 4.58323 15.9188 4.58322 16.4313 4.59685C16.3441 3.69552 16.1457 3.09004 15.6943 2.63871Z" fill="white"/>
<path d="M16.5 14.2083C16.5 16.801 16.5 18.5557 15.6945 19.3611C14.8891 20.1666 13.5927 20.1666 11 20.1666C8.40728 20.1666 7.11091 20.1666 6.30546 19.3611C5.5 18.5557 5.5 16.801 5.5 14.2083H16.5Z" fill="white"/>
<path opacity="0.5" d="M14.6667 5.5H7.33337C4.74065 5.5 3.44429 5.5 2.63883 6.30546C1.83337 7.11091 1.83337 8.40728 1.83337 11C1.83337 13.5927 1.83337 14.8891 2.63883 15.6945C3.09217 16.1479 3.70102 16.3461 4.60899 16.4327C4.58335 15.7702 4.58336 14.9896 4.58337 14.2084C4.33024 14.2084 4.12504 14.0031 4.12504 13.75C4.12504 13.4969 4.33024 13.2917 4.58337 13.2917H17.4167C17.6698 13.2917 17.875 13.4969 17.875 13.75C17.875 14.0031 17.6698 14.2087 17.4167 14.2087C17.4167 14.9898 17.4167 15.7702 17.3911 16.4327C18.2991 16.3461 18.9079 16.1479 19.3613 15.6945C20.1667 14.8891 20.1667 13.5927 20.1667 11C20.1667 8.40728 20.1667 7.11091 19.3613 6.30546C18.5558 5.5 17.2594 5.5 14.6667 5.5Z" fill="white"/>
<path d="M8.25 9.85417C8.6297 9.85417 8.9375 9.54636 8.9375 9.16667C8.9375 8.78697 8.6297 8.47917 8.25 8.47917H5.5C5.1203 8.47917 4.8125 8.78697 4.8125 9.16667C4.8125 9.54636 5.1203 9.85417 5.5 9.85417H8.25Z" fill="white"/>
<path d="M16.5 9.16667C16.5 9.67293 16.0896 10.0833 15.5833 10.0833C15.0771 10.0833 14.6667 9.67293 14.6667 9.16667C14.6667 8.66041 15.0771 8.25 15.5833 8.25C16.0896 8.25 16.5 8.66041 16.5 9.16667Z" fill="white"/>
</svg>
