<svg width="18" height="18" viewBox="0 0 18 18" fill="none" xmlns="http://www.w3.org/2000/svg">
<path opacity="0.3" d="M1.32687 13.5475C1.40378 14.1474 1.6806 14.7038 2.11264 15.1269C2.54467 15.5501 3.1067 15.8153 3.70801 15.8798C5.41672 16.0598 7.18587 16.2475 9.00001 16.2475C10.8129 16.2475 12.5833 16.0585 14.292 15.8798C14.8935 15.8158 15.4558 15.5507 15.8879 15.1274C16.32 14.7042 16.5967 14.1475 16.6732 13.5475C16.8557 12.0767 17.0357 10.5569 17.0357 8.99995C17.0357 7.44423 16.8557 5.92323 16.6732 4.45238C16.5965 3.8523 16.3198 3.29559 15.8877 2.87217C15.4557 2.44874 14.8935 2.18333 14.292 2.11881C12.5833 1.94138 10.8129 1.75366 9.00001 1.75366C7.18715 1.75366 5.41672 1.94266 3.70801 2.12138C3.10654 2.1854 2.54426 2.45048 2.11214 2.87373C1.68002 3.29699 1.40335 3.85365 1.32687 4.45366C1.14429 5.92323 0.964294 7.44423 0.964294 8.99995C0.964294 10.5557 1.14429 12.0767 1.32687 13.5475Z" fill="#FFA600"/>
<path d="M1.32687 13.5475C1.40378 14.1474 1.6806 14.7038 2.11264 15.1269C2.54467 15.5501 3.1067 15.8153 3.70801 15.8798C5.41672 16.0598 7.18587 16.2475 9.00001 16.2475C10.8129 16.2475 12.5833 16.0585 14.292 15.8798C14.8935 15.8158 15.4558 15.5507 15.8879 15.1274C16.32 14.7042 16.5967 14.1475 16.6732 13.5475C16.8557 12.0767 17.0357 10.5569 17.0357 8.99995C17.0357 7.44423 16.8557 5.92323 16.6732 4.45238C16.5965 3.8523 16.3198 3.29559 15.8877 2.87217C15.4557 2.44874 14.8935 2.18333 14.292 2.11881C12.5833 1.94138 10.8129 1.75366 9.00001 1.75366C7.18715 1.75366 5.41672 1.94266 3.70801 2.12138C3.10654 2.1854 2.54426 2.45048 2.11214 2.87373C1.68002 3.29699 1.40335 3.85365 1.32687 4.45366C1.14429 5.92323 0.964294 7.44423 0.964294 8.99995C0.964294 10.5557 1.14429 12.0767 1.32687 13.5475Z" stroke="#FFA600" stroke-linecap="round" stroke-linejoin="round"/>
<path d="M1.36285 4.11938L7.40828 8.88681C7.86184 9.24428 8.42251 9.43867 9 9.43867C9.57748 9.43867 10.1382 9.24428 10.5917 8.88681L16.6371 4.11938" stroke="#FFA600" stroke-linecap="round" stroke-linejoin="round"/>
</svg>
