<svg width="15" height="16" viewBox="0 0 15 16" fill="none" xmlns="http://www.w3.org/2000/svg">
<path d="M8.72156 14.3539L8.31499 15.0408C7.95262 15.653 7.04735 15.653 6.68498 15.0408L6.2784 14.3539C5.96305 13.8211 5.80537 13.5547 5.55209 13.4074C5.29882 13.2601 4.97994 13.2546 4.34218 13.2436C3.40066 13.2274 2.81017 13.1697 2.31494 12.9645C1.39608 12.5839 0.66605 11.8539 0.285452 10.9351C0 10.2459 0 9.37228 0 7.625V6.875C0 4.41993 0 3.19239 0.5526 2.29063C0.86181 1.78605 1.28605 1.36181 1.79063 1.0526C2.69239 0.5 3.91993 0.5 6.375 0.5H8.625C11.0801 0.5 12.3076 0.5 13.2094 1.0526C13.714 1.36181 14.1382 1.78605 14.4474 2.29063C15 3.19239 15 4.41993 15 6.875V7.625C15 9.37228 15 10.2459 14.7145 10.9351C14.3339 11.8539 13.6039 12.5839 12.6851 12.9645C12.1898 13.1697 11.5993 13.2274 10.6578 13.2436C10.02 13.2546 9.7011 13.2601 9.44788 13.4074C9.1946 13.5547 9.03692 13.8211 8.72156 14.3539Z" fill="#7E7E7E"/>
<path d="M12.9297 5.89134C12.9126 5.71946 12.8395 5.58594 12.7102 5.49077C12.581 5.3956 12.4055 5.34801 12.1839 5.34801C12.0334 5.34801 11.9063 5.36932 11.8026 5.41193C11.6989 5.45313 11.6193 5.51066 11.5639 5.58452C11.5099 5.65838 11.483 5.74219 11.483 5.83594C11.4801 5.91406 11.4964 5.98225 11.532 6.04048C11.5689 6.09872 11.6193 6.14915 11.6832 6.19176C11.7472 6.23296 11.821 6.26918 11.9048 6.30043C11.9886 6.33026 12.0781 6.35583 12.1733 6.37713L12.5653 6.47088C12.7557 6.5135 12.9304 6.57031 13.0895 6.64134C13.2486 6.71236 13.3864 6.79972 13.5028 6.90341C13.6193 7.0071 13.7095 7.12926 13.7734 7.26989C13.8388 7.41051 13.8722 7.57173 13.8736 7.75355C13.8722 8.0206 13.804 8.25213 13.669 8.44815C13.5355 8.64276 13.3423 8.79404 13.0895 8.90199C12.8381 9.00852 12.5348 9.06179 12.1797 9.06179C11.8274 9.06179 11.5206 9.00781 11.2592 8.89986C10.9993 8.7919 10.7962 8.6321 10.6499 8.42046C10.505 8.20739 10.429 7.94389 10.4219 7.62997H11.3146C11.3246 7.77628 11.3665 7.89844 11.4403 7.99645C11.5156 8.09304 11.6158 8.16619 11.7408 8.21591C11.8672 8.26421 12.0099 8.28835 12.169 8.28835C12.3253 8.28835 12.4609 8.26563 12.576 8.22017C12.6925 8.17472 12.7827 8.11151 12.8466 8.03054C12.9105 7.94958 12.9425 7.85654 12.9425 7.75142C12.9425 7.65341 12.9134 7.57102 12.8551 7.50426C12.7983 7.4375 12.7145 7.38068 12.6037 7.33381C12.4943 7.28693 12.3601 7.24432 12.201 7.20597L11.7259 7.08665C11.358 6.99716 11.0675 6.85725 10.8544 6.6669C10.6413 6.47656 10.5355 6.22017 10.5369 5.89773C10.5355 5.63352 10.6058 5.4027 10.7479 5.20526C10.8913 5.00781 11.0881 4.85369 11.3381 4.7429C11.5881 4.6321 11.8722 4.57671 12.1903 4.57671C12.5142 4.57671 12.7969 4.6321 13.0384 4.7429C13.2813 4.85369 13.4702 5.00781 13.6051 5.20526C13.7401 5.4027 13.8097 5.63139 13.8139 5.89134H12.9297Z" fill="white"/>
<path d="M5.07227 4.63637H6.21005L7.41175 7.56819H7.46289L8.6646 4.63637H9.80238V9H8.90749V6.15981H8.87127L7.74201 8.9787H7.13263L6.00337 6.14915H5.96715V9H5.07227V4.63637Z" fill="white"/>
<path d="M3.50781 5.89134C3.49077 5.71946 3.41761 5.58594 3.28835 5.49077C3.15909 5.3956 2.98366 5.34801 2.76207 5.34801C2.61151 5.34801 2.48438 5.36932 2.38068 5.41193C2.27699 5.45313 2.19744 5.51066 2.14205 5.58452C2.08807 5.65838 2.06108 5.74219 2.06108 5.83594C2.05824 5.91406 2.07457 5.98225 2.11009 6.04048C2.14702 6.09872 2.19744 6.14915 2.26136 6.19176C2.32528 6.23296 2.39915 6.26918 2.48295 6.30043C2.56676 6.33026 2.65625 6.35583 2.75142 6.37713L3.14347 6.47088C3.33381 6.5135 3.50852 6.57031 3.66761 6.64134C3.8267 6.71236 3.96449 6.79972 4.08097 6.90341C4.19744 7.0071 4.28764 7.12926 4.35156 7.26989C4.4169 7.41051 4.45028 7.57173 4.4517 7.75355C4.45028 8.0206 4.3821 8.25213 4.24716 8.44815C4.11364 8.64276 3.92045 8.79404 3.66761 8.90199C3.41619 9.00852 3.11293 9.06179 2.75781 9.06179C2.40554 9.06179 2.09872 9.00781 1.83736 8.89986C1.57741 8.7919 1.37429 8.6321 1.22798 8.42046C1.0831 8.20739 1.0071 7.94389 1 7.62997H1.89276C1.9027 7.77628 1.9446 7.89844 2.01847 7.99645C2.09375 8.09304 2.19389 8.16619 2.31889 8.21591C2.44531 8.26421 2.58807 8.28835 2.74716 8.28835C2.90341 8.28835 3.03906 8.26563 3.15412 8.22017C3.2706 8.17472 3.3608 8.11151 3.42472 8.03054C3.48864 7.94958 3.5206 7.85654 3.5206 7.75142C3.5206 7.65341 3.49148 7.57102 3.43324 7.50426C3.37642 7.4375 3.29261 7.38068 3.18182 7.33381C3.07244 7.28693 2.93821 7.24432 2.77912 7.20597L2.30398 7.08665C1.93608 6.99716 1.6456 6.85725 1.43253 6.6669C1.21946 6.47656 1.11364 6.22017 1.11506 5.89773C1.11364 5.63352 1.18395 5.4027 1.32599 5.20526C1.46946 5.00781 1.66619 4.85369 1.91619 4.7429C2.16619 4.6321 2.45028 4.57671 2.76847 4.57671C3.09233 4.57671 3.375 4.6321 3.61648 4.7429C3.85938 4.85369 4.0483 5.00781 4.18324 5.20526C4.31818 5.4027 4.38778 5.63139 4.39205 5.89134H3.50781Z" fill="white"/>
</svg>
