<svg width="18" height="18" viewBox="0 0 18 18" fill="none" xmlns="http://www.w3.org/2000/svg">
<path d="M2.25 4.78948C2.25 4.42614 2.50904 4.13159 2.82857 4.13159L4.82675 4.13124C5.22377 4.1198 5.57401 3.83275 5.7091 3.40809C5.71266 3.39692 5.71674 3.38315 5.73139 3.33318L5.81749 3.03942C5.87018 2.8593 5.91608 2.70239 5.98031 2.56213C6.23407 2.00802 6.70356 1.62324 7.2461 1.52473C7.38343 1.49979 7.52886 1.4999 7.69579 1.50002H10.3043C10.4713 1.4999 10.6167 1.49979 10.754 1.52473C11.2966 1.62324 11.7661 2.00802 12.0198 2.56213C12.0841 2.70239 12.13 2.8593 12.1826 3.03942L12.2687 3.33318C12.2834 3.38315 12.2875 3.39692 12.291 3.40809C12.4261 3.83275 12.8458 4.12015 13.2429 4.13159H15.1714C15.491 4.13159 15.75 4.42614 15.75 4.78948C15.75 5.15282 15.491 5.44737 15.1714 5.44737H2.82857C2.50904 5.44737 2.25 5.15282 2.25 4.78948Z" fill="#333333"/>
<path fill-rule="evenodd" clip-rule="evenodd" d="M7.06907 8.61114C7.37819 8.5786 7.65384 8.816 7.68475 9.14139L8.05975 13.0888C8.09066 13.4141 7.86513 13.7043 7.55601 13.7368C7.24689 13.7694 6.97125 13.532 6.94033 13.2066L6.56533 9.25922C6.53442 8.93383 6.75995 8.64368 7.06907 8.61114Z" fill="#333333"/>
<path fill-rule="evenodd" clip-rule="evenodd" d="M10.931 8.61114C11.2401 8.64368 11.4657 8.93383 11.4348 9.25922L11.0598 13.2066C11.0288 13.532 10.7532 13.7694 10.4441 13.7368C10.135 13.7043 9.90942 13.4141 9.94033 13.0888L10.3153 9.14139C10.3462 8.816 10.6219 8.5786 10.931 8.61114Z" fill="#333333"/>
<path opacity="0.3" d="M8.6967 16.5H9.3033C11.3903 16.5 12.4339 16.5 13.1123 15.8355C13.7908 15.1711 13.8602 14.0812 13.9991 11.9014L14.1991 8.76043C14.2744 7.57768 14.3121 6.98631 13.9717 6.61156C13.6313 6.23682 13.0565 6.23682 11.907 6.23682H6.09303C4.94345 6.23682 4.36866 6.23682 4.02829 6.61156C3.68792 6.98631 3.72558 7.57768 3.80091 8.76043L4.00094 11.9013C4.13977 14.0812 4.20919 15.1711 4.88767 15.8355C5.56615 16.5 6.60967 16.5 8.6967 16.5Z" fill="#333333"/>
</svg>
