<svg width="18" height="18" viewBox="0 0 18 18" fill="none" xmlns="http://www.w3.org/2000/svg">
<g clip-path="url(#clip0_2_5)">
<path d="M8.21737 2.42172L0.486206 7.51898L8.21737 12.6162V2.42172Z" fill="#F4B2B0"/>
<path d="M11.2176 4.90373H8.70358V2.42174C8.70358 2.24286 8.60535 2.07844 8.44789 1.99364C8.29035 1.90881 8.09911 1.91746 7.9498 2.01582L0.218601 7.11308C0.0821248 7.20301 0 7.35552 0 7.519C0 7.68247 0.0821248 7.83498 0.218601 7.92491L7.9498 13.0221C8.03069 13.0755 8.12389 13.1024 8.21744 13.1024C8.29651 13.1024 8.37575 13.0831 8.44789 13.0443C8.60535 12.9595 8.70358 12.7951 8.70358 12.6162V5.87615H11.2176C11.4861 5.87615 11.7038 5.6585 11.7038 5.38997C11.7038 5.12142 11.4861 4.90373 11.2176 4.90373ZM7.7312 11.7133L1.36947 7.519L7.7312 3.32465V11.7133Z" fill="#B3404A"/>
<path d="M17.5138 16.0644C17.3484 16.0644 17.1904 15.9798 17.1002 15.8338L15.0952 12.5894C14.0918 10.9656 12.3532 9.99624 10.4444 9.99624C10.1759 9.99624 9.95824 9.77859 9.95824 9.51007C9.95824 9.24154 10.176 9.02389 10.4444 9.02389C11.5395 9.02389 12.6239 9.30577 13.5804 9.83909C14.5369 10.3724 15.3468 11.1467 15.9224 12.0783L17.0276 13.8667V11.6861C17.0276 9.24966 15.4896 7.0543 13.2006 6.22321C12.9482 6.13156 12.8179 5.8527 12.9096 5.60031C13.0012 5.34789 13.28 5.21753 13.5325 5.30922C16.2047 6.27942 18.0001 8.8421 18.0001 11.6861V15.5782C18.0001 15.7956 17.8558 15.9865 17.6467 16.046C17.6026 16.0584 17.5579 16.0644 17.5138 16.0644Z" fill="#B3404A"/>
</g>
<defs>
<clipPath id="clip0_2_5">
<rect width="18" height="18" fill="white"/>
</clipPath>
</defs>
</svg>
