<svg width="18" height="18" viewBox="0 0 18 18" fill="none" xmlns="http://www.w3.org/2000/svg">
<path opacity="0.3" d="M16.5 11.9998V11.2498C16.5 9.12852 16.4998 8.06819 15.8408 7.40918C15.1818 6.75017 14.1212 6.75018 11.9998 6.75018H5.99983C3.87851 6.75018 2.81785 6.75018 2.15884 7.40919C1.5 8.06802 1.5 9.12797 1.5 11.2482V11.2498V11.9998C1.5 14.1212 1.5 15.1818 2.15901 15.8408C2.81802 16.4998 3.87868 16.4998 6 16.4998H12H12C14.1213 16.4998 15.182 16.4998 15.841 15.8408C16.5 15.1818 16.5 14.1212 16.5 11.9998Z" fill="white"/>
<path fill-rule="evenodd" clip-rule="evenodd" d="M9.00001 11.8125C9.31067 11.8125 9.56251 11.5607 9.56251 11.25L9.56251 3.02058L10.8229 4.49107C11.0251 4.72694 11.3802 4.75426 11.6161 4.55208C11.852 4.34991 11.8793 3.9948 11.6771 3.75893L9.42709 1.13393C9.32023 1.00925 9.16422 0.9375 9.00001 0.9375C8.8358 0.9375 8.67979 1.00925 8.57293 1.13393L6.32293 3.75893C6.12075 3.9948 6.14807 4.34991 6.38394 4.55208C6.61981 4.75426 6.97492 4.72694 7.17709 4.49107L8.43751 3.02058L8.43751 11.25C8.43751 11.5607 8.68935 11.8125 9.00001 11.8125Z" fill="white"/>
</svg>
