<svg width="19" height="24" viewBox="0 0 19 24" fill="none" xmlns="http://www.w3.org/2000/svg">
<path d="M14.3334 5.50033C14.3334 7.89356 12.3933 9.83366 10.0001 9.83366C7.60685 9.83366 5.66675 7.89356 5.66675 5.50033C5.66675 3.10709 7.60685 1.16699 10.0001 1.16699C12.3933 1.16699 14.3334 3.10709 14.3334 5.50033Z" stroke="#034EA2" stroke-width="1.5" stroke-linecap="round"/>
<path opacity="0.5" d="M12.6838 22.7472C11.8971 22.8035 11.007 22.833 9.99992 22.833C1.33325 22.833 1.33325 20.6504 1.33325 17.958C1.33325 15.2656 5.21345 13.083 9.99992 13.083C13.1206 13.083 15.856 14.0108 17.382 15.4027C16.8228 15.2497 16.0381 15.2497 14.8749 15.2497C13.0875 15.2497 12.1938 15.2497 11.6385 15.805C11.0833 16.3602 11.0833 17.2539 11.0833 19.0413C11.0833 20.8288 11.0833 21.7225 11.6385 22.2777C11.8958 22.535 12.2258 22.6731 12.6838 22.7472Z" fill="#034EA2"/>
<path d="M12.3505 22.6642C11.5639 22.7205 10.6738 22.75 9.66667 22.75C1 22.75 1 20.5674 1 17.875C1 15.1826 4.8802 13 9.66667 13C12.7873 13 15.5227 13.9278 17.0488 15.3197C16.4895 15.1667 15.7048 15.1667 14.5417 15.1667C12.7543 15.1667 11.8606 15.1667 11.3053 15.7219C10.75 16.2772 10.75 17.1709 10.75 18.9583C10.75 20.7457 10.75 21.6394 11.3053 22.1947C11.5626 22.452 11.8926 22.5901 12.3505 22.6642Z" stroke="#034EA2" stroke-width="1.5" stroke-linecap="round"/>
<path fill-rule="evenodd" clip-rule="evenodd" d="M14.8749 22.8333C13.0875 22.8333 12.1938 22.8333 11.6385 22.2781C11.0833 21.7228 11.0833 20.8291 11.0833 19.0417C11.0833 17.2543 11.0833 16.3606 11.6385 15.8053C12.1938 15.25 13.0875 15.25 14.8749 15.25C16.6623 15.25 17.556 15.25 18.1113 15.8053C18.6666 16.3606 18.6666 17.2543 18.6666 19.0417C18.6666 20.8291 18.6666 21.7228 18.1113 22.2781C17.556 22.8333 16.6623 22.8333 14.8749 22.8333ZM13.6366 16.9096C13.3898 16.6628 12.9897 16.6628 12.7429 16.9096C12.4961 17.1564 12.4961 17.5565 12.7429 17.8033L13.9812 19.0417L12.7429 20.28C12.4961 20.5268 12.4961 20.9269 12.7429 21.1737C12.9897 21.4205 13.3898 21.4205 13.6366 21.1737L14.8749 19.9354L16.1133 21.1737C16.36 21.4205 16.7602 21.4205 17.007 21.1737C17.2537 20.9269 17.2537 20.5268 17.007 20.28L15.7686 19.0417L17.007 17.8033C17.2537 17.5565 17.2537 17.1564 17.007 16.9096C16.7602 16.6628 16.36 16.6628 16.1133 16.9096L14.8749 18.148L13.6366 16.9096Z" fill="#034EA2"/>
</svg>
