<svg width="24" height="24" viewBox="0 0 24 24" fill="none" xmlns="http://www.w3.org/2000/svg">
<g clip-path="url(#clip0_289_14986)">
<path opacity="0.3" d="M12 23.1429C19.1315 23.1429 23.1429 19.1314 23.1429 12C23.1429 4.86857 19.1315 0.857143 12 0.857143C4.86861 0.857143 0.857178 4.86857 0.857178 12C0.857178 19.1314 4.86861 23.1429 12 23.1429Z" fill="#034EA2"/>
<path d="M18.35 21.6806C16.6489 22.6423 14.5191 23.1429 12 23.1429C9.48076 23.1429 7.3509 22.6423 5.64966 21.6804V20.6306C6.00357 19.2977 6.76907 18.1066 7.84184 17.2298C9.0153 16.2706 10.4843 15.7467 11.9999 15.7467C13.5155 15.7467 14.9844 16.2706 16.1579 17.2298C17.2306 18.1066 17.9962 19.2977 18.35 20.6306V21.6806Z" fill="white"/>
<path d="M18.35 20.6306C17.9962 19.2977 17.2306 18.1066 16.1579 17.2298C14.9844 16.2706 13.5155 15.7467 11.9999 15.7467C10.4843 15.7467 9.0153 16.2706 7.84184 17.2298C6.76907 18.1066 6.00357 19.2977 5.64966 20.6306" stroke="#034EA2" stroke-width="1.5" stroke-linecap="round" stroke-linejoin="round"/>
<path d="M12 23.1429C19.1315 23.1429 23.1429 19.1314 23.1429 12C23.1429 4.86857 19.1315 0.857143 12 0.857143C4.86861 0.857143 0.857178 4.86857 0.857178 12C0.857178 19.1314 4.86861 23.1429 12 23.1429Z" stroke="#034EA2" stroke-width="1.5" stroke-linecap="round" stroke-linejoin="round"/>
<path d="M11.9988 12.9942C14.3988 12.9942 15.7488 11.6442 15.7488 9.24422C15.7488 6.84422 14.3988 5.49422 11.9988 5.49422C9.59878 5.49422 8.24878 6.84422 8.24878 9.24422C8.24878 11.6442 9.59878 12.9942 11.9988 12.9942Z" fill="white"/>
<path d="M11.9988 12.9942C14.3988 12.9942 15.7488 11.6442 15.7488 9.24422C15.7488 6.84422 14.3988 5.49422 11.9988 5.49422C9.59878 5.49422 8.24878 6.84422 8.24878 9.24422C8.24878 11.6442 9.59878 12.9942 11.9988 12.9942Z" stroke="#034EA2" stroke-width="1.5" stroke-linecap="round" stroke-linejoin="round"/>
</g>
<defs>
<clipPath id="clip0_289_14986">
<rect width="24" height="24" fill="white"/>
</clipPath>
</defs>
</svg>
