<svg width="30" height="30" viewBox="0 0 30 30" fill="none" xmlns="http://www.w3.org/2000/svg">
    <path d="M25.6249 10.625C25.6249 12.3509 24.2258 13.75 22.4999 13.75C20.774 13.75 19.3749 12.3509 19.3749 10.625C19.3749 8.89911 20.774 7.5 22.4999 7.5C24.2258 7.5 25.6249 8.89911 25.6249 10.625Z" fill="#034EA2" fill-opacity="0.3"/>
    <path d="M10.6249 10.625C10.6249 12.3509 9.22577 13.75 7.49988 13.75C5.77399 13.75 4.37488 12.3509 4.37488 10.625C4.37488 8.89911 5.77399 7.5 7.49988 7.5C9.22577 7.5 10.6249 8.89911 10.6249 10.625Z" fill="#034EA2" fill-opacity="0.3"/>
    <path d="M4.47963 17.4075C3.20241 18.0656 -0.14639 19.4095 1.89325 21.0911C2.8896 21.9125 3.99928 22.5 5.39441 22.5H13.3553C14.7505 22.5 15.8602 21.9125 16.8565 21.0911C18.8961 19.4095 15.5473 18.0656 14.2701 17.4075C11.2751 15.8642 7.4747 15.8642 4.47963 17.4075Z" fill="none"/>
    <path d="M15.7296 17.4075C14.4524 18.0656 11.1036 19.4095 13.1433 21.0911C14.1396 21.9125 15.2493 22.5 16.6444 22.5H24.6053C26.0005 22.5 27.1102 21.9125 28.1065 21.0911C30.1461 19.4095 26.7973 18.0656 25.5201 17.4075C22.5251 15.8642 18.7247 15.8642 15.7296 17.4075Z" fill="none"/>
    <path d="M25.9674 22.5C26.9041 22.5 27.649 21.9106 28.3179 21.0864C29.6873 19.3993 27.439 18.051 26.5816 17.3908C25.7099 16.7195 24.7366 16.3393 23.7499 16.25M22.4999 13.75C24.2258 13.75 25.6249 12.3509 25.6249 10.625C25.6249 8.89911 24.2258 7.5 22.4999 7.5" stroke="#034EA2" stroke-width="1.5" stroke-linecap="round"/>
    <path d="M4.03239 22.5C3.09576 22.5 2.35077 21.9106 1.68187 21.0864C0.31255 19.3993 2.56078 18.051 3.41825 17.3908C4.28991 16.7195 5.26317 16.3393 6.24994 16.25M6.87494 13.75C5.14905 13.75 3.74994 12.3509 3.74994 10.625C3.74994 8.89911 5.14905 7.5 6.87494 7.5" stroke="#034EA2" stroke-width="1.5" stroke-linecap="round"/>
    <path d="M10.1046 18.889C8.82741 19.6787 5.47861 21.2914 7.51825 23.3093C8.5146 24.295 9.62428 25 11.0194 25H18.9803C20.3755 25 21.4852 24.295 22.4815 23.3093C24.5211 21.2914 21.1723 19.6787 19.8951 18.889C16.9001 17.037 13.0997 17.037 10.1046 18.889Z" fill="#034EA2" fill-opacity="0.3"/>
    <path d="M10.1046 18.889C8.82741 19.6787 5.47861 21.2914 7.51825 23.3093C8.5146 24.295 9.62428 25 11.0194 25H18.9803C20.3755 25 21.4852 24.295 22.4815 23.3093C24.5211 21.2914 21.1723 19.6787 19.8951 18.889C16.9001 17.037 13.0997 17.037 10.1046 18.889Z" stroke="#034EA2" stroke-width="1.5" stroke-linecap="round" stroke-linejoin="round"/>
    <path d="M19.3749 9.375C19.3749 11.7912 17.4161 13.75 14.9999 13.75C12.5836 13.75 10.6249 11.7912 10.6249 9.375C10.6249 6.95875 12.5836 5 14.9999 5C17.4161 5 19.3749 6.95875 19.3749 9.375Z" fill="none"/>
    <path d="M19.3749 9.375C19.3749 11.7912 17.4161 13.75 14.9999 13.75C12.5836 13.75 10.6249 11.7912 10.6249 9.375C10.6249 6.95875 12.5836 5 14.9999 5C17.4161 5 19.3749 6.95875 19.3749 9.375Z" stroke="#034EA2" stroke-width="1.5"/>
</svg>
