<svg width="18" height="18" viewBox="0 0 18 18" fill="none" xmlns="http://www.w3.org/2000/svg">
<path d="M1.5469 11.733C1.15571 11.2132 0.908965 10.8809 0.745858 10.5033C0.589678 10.1418 0.5 9.71002 0.5 9.00011C0.5 8.29021 0.589678 7.85846 0.745858 7.4969C0.908964 7.1193 1.15571 6.78704 1.5469 6.26727C3.03126 4.29502 5.46276 2.13647 9 2.13647C12.5372 2.13647 14.9687 4.29502 16.4531 6.26727C16.8443 6.78704 17.091 7.1193 17.2541 7.4969C17.4103 7.85846 17.5 8.29021 17.5 9.00011C17.5 9.71002 17.4103 10.1418 17.2541 10.5033C17.091 10.8809 16.8443 11.2132 16.4531 11.733C14.9687 13.7052 12.5372 15.8637 9 15.8637C5.46276 15.8637 3.03126 13.7052 1.5469 11.733Z" fill="#1EBB79" fill-opacity="0.15" stroke="#1EBB79"/>
<path d="M1.5469 11.733C1.15571 11.2132 0.908965 10.8809 0.745858 10.5033C0.589678 10.1418 0.5 9.71002 0.5 9.00011C0.5 8.29021 0.589678 7.85846 0.745858 7.4969C0.908964 7.1193 1.15571 6.78704 1.5469 6.26727C3.03126 4.29502 5.46276 2.13647 9 2.13647C12.5372 2.13647 14.9687 4.29502 16.4531 6.26727C16.8443 6.78704 17.091 7.1193 17.2541 7.4969C17.4103 7.85846 17.5 8.29021 17.5 9.00011C17.5 9.71002 17.4103 10.1418 17.2541 10.5033C17.091 10.8809 16.8443 11.2132 16.4531 11.733C14.9687 13.7052 12.5372 15.8637 9 15.8637C5.46276 15.8637 3.03126 13.7052 1.5469 11.733Z" stroke="#1EBB79"/>
<path d="M1.5469 11.733C1.15571 11.2132 0.908965 10.8809 0.745858 10.5033C0.589678 10.1418 0.5 9.71002 0.5 9.00011C0.5 8.29021 0.589678 7.85846 0.745858 7.4969C0.908964 7.1193 1.15571 6.78704 1.5469 6.26727C3.03126 4.29502 5.46276 2.13647 9 2.13647C12.5372 2.13647 14.9687 4.29502 16.4531 6.26727C16.8443 6.78704 17.091 7.1193 17.2541 7.4969C17.4103 7.85846 17.5 8.29021 17.5 9.00011C17.5 9.71002 17.4103 10.1418 17.2541 10.5033C17.091 10.8809 16.8443 11.2132 16.4531 11.733C14.9687 13.7052 12.5372 15.8637 9 15.8637C5.46276 15.8637 3.03126 13.7052 1.5469 11.733Z" stroke="#1EBB79"/>
<path fill-rule="evenodd" clip-rule="evenodd" d="M5.72729 9.00002C5.72729 7.19254 7.19254 5.72729 9.00002 5.72729C10.8075 5.72729 12.2727 7.19254 12.2727 9.00002C12.2727 10.8075 10.8075 12.2727 9.00002 12.2727C7.19254 12.2727 5.72729 10.8075 5.72729 9.00002Z" stroke="#1EBB79"/>
</svg>
